Normalized EMG Linear Envelopes
nRows=264
nColumns=4

endheader
time	 med_gas_r	  soleus_r	 tib_ant_r	
3.62601	  0.001787	  0.002397	  0.000957	
3.65927	  0.001783	  0.002444	  0.000990	
3.69254	  0.001780	  0.002494	  0.001019	
3.72581	  0.001779	  0.002549	  0.001044	
3.75907	  0.001778	  0.002597	  0.001061	
3.79234	  0.001775	  0.002621	  0.001070	
3.8256	  0.001767	  0.002608	  0.001069	
3.85887	  0.001750	  0.002559	  0.001061	
3.89214	  0.001722	  0.002490	  0.001047	
3.9254	  0.001680	  0.002420	  0.001031	
3.95867	  0.001627	  0.002363	  0.001015	
3.99194	  0.001569	  0.002322	  0.001001	
4.0252	  0.001514	  0.002295	  0.000993	
4.05847	  0.001471	  0.002279	  0.000994	
4.09173	  0.001445	  0.002270	  0.001007	
4.125	  0.001435	  0.002266	  0.001031	
4.15827	  0.001438	  0.002266	  0.001061	
4.19153	  0.001447	  0.002268	  0.001091	
4.2248	  0.001458	  0.002272	  0.001113	
4.25806	  0.001469	  0.002277	  0.001120	
4.29133	  0.001480	  0.002281	  0.001105	
4.3246	  0.001490	  0.002279	  0.001061	
4.35786	  0.001496	  0.002269	  0.000981	
4.39113	  0.001499	  0.002250	  0.000855	
4.4244	  0.001498	  0.002218	  0.000681	
4.45766	  0.001494	  0.002175	  0.000459	
4.49093	  0.001490	  0.002123	  0.000202	
4.52419	  0.001487	  0.002075	 -0.000057	
4.55746	  0.001488	  0.002052	 -0.000238	
4.59073	  0.001502	  0.002082	 -0.000212	
4.62399	  0.001538	  0.002195	  0.000193	
4.65726	  0.001610	  0.002416	  0.001175	
4.69052	  0.001729	  0.002774	  0.002969	
4.72379	  0.001906	  0.003304	  0.005847	
4.75706	  0.002147	  0.004041	  0.010063	
4.79032	  0.002445	  0.004980	  0.015682	
4.82359	  0.002774	  0.006041	  0.022399	
4.85685	  0.003092	  0.007084	  0.029568	
4.89012	  0.003364	  0.007989	  0.036533	
4.92339	  0.003584	  0.008744	  0.043086	
4.95665	  0.003776	  0.009459	  0.049632	
4.98992	  0.003974	  0.010276	  0.056916	
5.02319	  0.004197	  0.011274	  0.065570	
5.05645	  0.004454	  0.012458	  0.075935	
5.08972	  0.004764	  0.013858	  0.088232	
5.12298	  0.005167	  0.015610	  0.102747	
5.15625	  0.005705	  0.017926	  0.119696	
5.18952	  0.006387	  0.020964	  0.138904	
5.22278	  0.007179	  0.024735	  0.159708	
5.25605	  0.008027	  0.029134	  0.181291	
5.28931	  0.008893	  0.034061	  0.203173	
5.32258	  0.009782	  0.039530	  0.225401	
5.35585	  0.010728	  0.045623	  0.248322	
5.38911	  0.011750	  0.052337	  0.272223	
5.42238	  0.012832	  0.059446	  0.297188	
5.45565	  0.013922	  0.066495	  0.323143	
5.48891	  0.014968	  0.072975	  0.349829	
5.52218	  0.015945	  0.078551	  0.376591	
5.55544	  0.016859	  0.083185	  0.402313	
5.58871	  0.017727	  0.087067	  0.425861	
5.62198	  0.018557	  0.090441	  0.446870	
5.65524	  0.019332	  0.093448	  0.466171	
5.68851	  0.020011	  0.096070	  0.485402	
5.72177	  0.020532	  0.098145	  0.506079	
5.75504	  0.020837	  0.099404	  0.528845	
5.78831	  0.020907	  0.099545	  0.553156	
5.82157	  0.020779	  0.098355	  0.577115	
5.85484	  0.020536	  0.095846	  0.597361	
5.8881	  0.020266	  0.092340	  0.609558	
5.92137	  0.020029	  0.088454	  0.609909	
5.95464	  0.019839	  0.084942	  0.597096	
5.9879	  0.019674	  0.082440	  0.573234	
6.02117	  0.019486	  0.081219	  0.543091	
6.05444	  0.019233	  0.081152	  0.512324	
6.0877	  0.018913	  0.081950	  0.486011	
6.12097	  0.018599	  0.083496	  0.467990	
6.15423	  0.018430	  0.085921	  0.460539	
6.1875	  0.018547	  0.089324	  0.463993	
6.22077	  0.019007	  0.093389	  0.476616	
6.25403	  0.019737	  0.097325	  0.495358	
6.2873	  0.020567	  0.100257	  0.517365	
6.32056	  0.021326	  0.101775	  0.541173	
6.35383	  0.021934	  0.102211	  0.566540	
6.3871	  0.022414	  0.102423	  0.593013	
6.42036	  0.022843	  0.103256	  0.618606	
6.45363	  0.023268	  0.105028	  0.639895	
6.4869	  0.023687	  0.107333	  0.653512	
6.52016	  0.024066	  0.109294	  0.657700	
6.55343	  0.024378	  0.110097	  0.652833	
6.58669	  0.024621	  0.109486	  0.641016	
6.61996	  0.024812	  0.107890	  0.625601	
6.65323	  0.024969	  0.106090	  0.610748	
6.68649	  0.025096	  0.104703	  0.600426	
6.71976	  0.025171	  0.103863	  0.596702	
6.75302	  0.025147	  0.103300	  0.598475	
6.78629	  0.024970	  0.102684	  0.602044	
6.81956	  0.024623	  0.101906	  0.603410	
6.85282	  0.024124	  0.101009	  0.600504	
6.88609	  0.023499	  0.099885	  0.593632	
6.91935	  0.022744	  0.098085	  0.584142	
6.95262	  0.021838	  0.095010	  0.572934	
6.98589	  0.020796	  0.090369	  0.560211	
7.01915	  0.019705	  0.084499	  0.546369	
7.05242	  0.018704	  0.078281	  0.532790	
7.08569	  0.017914	  0.072752	  0.521590	
7.11895	  0.017403	  0.068741	  0.514567	
7.15222	  0.017188	  0.066713	  0.512369	
7.18548	  0.017260	  0.066803	  0.514594	
7.21875	  0.017595	  0.068864	  0.520523	
7.25202	  0.018140	  0.072479	  0.529577	
7.28528	  0.018826	  0.077012	  0.541079	
7.31855	  0.019582	  0.081751	  0.553961	
7.35181	  0.020365	  0.086065	  0.567181	
7.38508	  0.021157	  0.089499	  0.580602	
7.41835	  0.021959	  0.091822	  0.595178	
7.45161	  0.022779	  0.093088	  0.611916	
7.48488	  0.023646	  0.093676	  0.630508	
7.51815	  0.024595	  0.094180	  0.649026	
7.55141	  0.025646	  0.095149	  0.665004	
7.58468	  0.026772	  0.096845	  0.676862	
7.61794	  0.027904	  0.099237	  0.684399	
7.65121	  0.028952	  0.102169	  0.688148	
7.68448	  0.029828	  0.105466	  0.688475	
7.71774	  0.030451	  0.108877	  0.685355	
7.75101	  0.030742	  0.111998	  0.678851	
7.78427	  0.030652	  0.114351	  0.669594	
7.81754	  0.030189	  0.115610	  0.658687	
7.85081	  0.029443	  0.115776	  0.647193	
7.88407	  0.028564	  0.115146	  0.635760	
7.91734	  0.027718	  0.114092	  0.624687	
7.9506	  0.027025	  0.112810	  0.614149	
7.98387	  0.026530	  0.111180	  0.604192	
8.01714	  0.026209	  0.108889	  0.594590	
8.0504	  0.026014	  0.105750	  0.584944	
8.08367	  0.025924	  0.102016	  0.575090	
8.11694	  0.025952	  0.098425	  0.565323	
8.1502	  0.026114	  0.095938	  0.556117	
8.18347	  0.026398	  0.095332	  0.547701	
8.21673	  0.026757	  0.096884	  0.540120	
8.25	  0.027135	  0.100278	  0.533814	
8.28327	  0.027487	  0.104725	  0.530000	
8.31653	  0.027779	  0.109219	  0.530106	
8.3498	  0.027974	  0.112856	  0.534460	
8.38306	  0.028021	  0.115106	  0.541396	
8.41633	  0.027886	  0.115929	  0.547930	
8.4496	  0.027573	  0.115642	  0.551799	
8.48286	  0.027128	  0.114603	  0.553238	
8.51613	  0.026598	  0.112927	  0.554944	
8.5494	  0.026011	  0.110496	  0.560322	
8.58266	  0.025399	  0.107266	  0.571511	
8.61593	  0.024834	  0.103562	  0.588484	
8.64919	  0.024424	  0.100069	  0.609316	
8.68246	  0.024264	  0.097535	  0.630972	
8.71573	  0.024391	  0.096447	  0.650175	
8.74899	  0.024781	  0.096919	  0.664258	
8.78226	  0.025368	  0.098727	  0.671749	
8.81552	  0.026057	  0.101356	  0.672347	
8.84879	  0.026700	  0.104025	  0.666339	
8.88206	  0.027120	  0.105846	  0.654165	
8.91532	  0.027180	  0.106207	  0.636761	
8.94859	  0.026865	  0.105102	  0.616250	
8.98185	  0.026299	  0.103085	  0.595886	
9.01512	  0.025658	  0.100813	  0.578874	
9.04839	  0.025079	  0.098607	  0.567045	
9.08165	  0.024625	  0.096422	  0.560600	
9.11492	  0.024308	  0.094158	  0.558956	
9.14819	  0.024117	  0.091897	  0.561570	
9.18145	  0.024012	  0.089837	  0.567764	
9.21472	  0.023921	  0.088103	  0.575879	
9.24798	  0.023772	  0.086738	  0.582900	
9.28125	  0.023545	  0.085891	  0.585353	
9.31452	  0.023301	  0.085944	  0.581006	
9.34778	  0.023167	  0.087351	  0.570104	
9.38105	  0.023265	  0.090260	  0.555259	
9.41431	  0.023632	  0.094237	  0.540178	
9.44758	  0.024181	  0.098361	  0.528089	
9.48085	  0.024734	  0.101627	  0.520649	
9.51411	  0.025113	  0.103347	  0.517739	
9.54738	  0.025219	  0.103314	  0.518211	
9.58065	  0.025074	  0.101744	  0.521147	
9.61391	  0.024796	  0.099165	  0.526641	
9.64718	  0.024544	  0.096291	  0.535223	
9.68044	  0.024435	  0.093822	  0.546261	
9.71371	  0.024483	  0.092170	  0.556866	
9.74698	  0.024579	  0.091282	  0.562504	
9.78024	  0.024533	  0.090692	  0.558892	
9.81351	  0.024140	  0.089736	  0.543567	
9.84677	  0.023242	  0.087767	  0.516100	
9.88004	  0.021763	  0.084271	  0.477307	
9.91331	  0.019720	  0.078954	  0.428539	
9.94657	  0.017220	  0.071843	  0.371647	
9.97984	  0.014451	  0.063372	  0.309389	
10.0131	  0.011650	  0.054339	  0.245589	
10.0464	  0.009059	  0.045717	  0.184623	
10.0796	  0.006880	  0.038394	  0.130454	
10.1129	  0.005230	  0.032963	  0.085751	
10.1462	  0.004130	  0.029637	  0.051535	
10.1794	  0.003505	  0.028256	  0.027370	
10.2127	  0.003219	  0.028382	  0.011820	
10.246	  0.003118	  0.029456	  0.002968	
10.2792	  0.003073	  0.030982	 -0.001144	
10.3125	  0.003012	  0.032621	 -0.002202	
10.3458	  0.002921	  0.034130	 -0.001471	
10.379	  0.002815	  0.035224	  0.000193	
10.4123	  0.002712	  0.035515	  0.002233	
10.4456	  0.002613	  0.034640	  0.004274	
10.4788	  0.002509	  0.032505	  0.006063	
10.5121	  0.002399	  0.029448	  0.007446	
10.5454	  0.002293	  0.026137	  0.008365	
10.5786	  0.002205	  0.023249	  0.008853	
10.6119	  0.002146	  0.021147	  0.009015	
10.6452	  0.002113	  0.019803	  0.008972	
10.6784	  0.002097	  0.018998	  0.008803	
10.7117	  0.002085	  0.018599	  0.008519	
10.745	  0.002074	  0.018638	  0.008086	
10.7782	  0.002065	  0.019179	  0.007482	
10.8115	  0.002061	  0.020134	  0.006715	
10.8448	  0.002062	  0.021241	  0.005823	
10.878	  0.002061	  0.022167	  0.004856	
10.9113	  0.002048	  0.022643	  0.003888	
10.9446	  0.002014	  0.022533	  0.003014	
10.9778	  0.001960	  0.021859	  0.002330	
11.0111	  0.001896	  0.020791	  0.001899	
11.0444	  0.001840	  0.019585	  0.001734	
11.0776	  0.001812	  0.018492	  0.001807	
11.1109	  0.001829	  0.017708	  0.002056	
11.1442	  0.001898	  0.017353	  0.002387	
11.1774	  0.002022	  0.017454	  0.002685	
11.2107	  0.002200	  0.017914	  0.002847	
11.244	  0.002425	  0.018528	  0.002821	
11.2772	  0.002682	  0.019071	  0.002636	
11.3105	  0.002940	  0.019398	  0.002374	
11.3437	  0.003152	  0.019453	  0.002134	
11.377	  0.003265	  0.019195	  0.001987	
11.4103	  0.003244	  0.018542	  0.001966	
11.4435	  0.003090	  0.017380	  0.002064	
11.4768	  0.002842	  0.015648	  0.002236	
11.5101	  0.002559	  0.013417	  0.002405	
11.5433	  0.002293	  0.010907	  0.002487	
11.5766	  0.002074	  0.008417	  0.002427	
11.6099	  0.001913	  0.006218	  0.002229	
11.6431	  0.001814	  0.004473	  0.001948	
11.6764	  0.001780	  0.003215	  0.001665	
11.7097	  0.001807	  0.002393	  0.001445	
11.7429	  0.001881	  0.001921	  0.001330	
11.7762	  0.001970	  0.001713	  0.001342	
11.8095	  0.002042	  0.001687	  0.001495	
11.8427	  0.002075	  0.001774	  0.001795	
11.876	  0.002065	  0.001914	  0.002232	
11.9093	  0.002024	  0.002062	  0.002758	
11.9425	  0.001967	  0.002191	  0.003279	
11.9758	  0.001905	  0.002286	  0.003676	
12.0091	  0.001842	  0.002345	  0.003841	
12.0423	  0.001781	  0.002375	  0.003729	
12.0756	  0.001724	  0.002384	  0.003372	
12.1089	  0.001673	  0.002380	  0.002865	
12.1421	  0.001632	  0.002367	  0.002323	
12.1754	  0.001606	  0.002349	  0.001835	
12.2087	  0.001599	  0.002326	  0.001453	
12.2419	  0.001613	  0.002300	  0.001189	
12.2752	  0.001645	  0.002273	  0.001033	
12.3085	  0.001690	  0.002249	  0.000964	
12.3417	  0.001739	  0.002232	  0.000960	
12.375	  0.001788	  0.002220	  0.000995	
